<?xml version="1.0" encoding="UTF-8" standalone="no"?>
<svg xmlns="http://www.w3.org/2000/svg" aria-hidden="true" role="img" width="1em" height="1em" preserveAspectRatio="xMidYMid meet" viewBox="0 0 24 24"><path d="M12 2C6.47 2 2 6.5 2 12a10 10 0 0 0 10 10a10 10 0 0 0 10-10A10 10 0 0 0 12 2M9.75 7.82c.87 0 1.7.41 2.25 1.05c.55-.64 1.38-1.05 2.25-1.05c1.54 0 2.75 1.21 2.75 2.75c0 1.89-1.7 3.43-4.28 5.77L12 17l-.72-.66C8.7 14 7 12.46 7 10.57c0-1.54 1.21-2.75 2.75-2.75z" fill="currentColor"/></svg>
