/* XPM */
static char *telegram16[] = {
/* columns rows colors chars-per-pixel */
"16 16 16 1 ",
"  c #2CA5E0",
". c #2CA5E0",
"X c #2CA5E0",
"o c #2CA5E0",
"O c #2CA5E0",
"+ c #2CA5E0",
"@ c #2CA5E0",
"# c #55B6E6",
"$ c #61BBE8",
"% c #75C4EB",
"& c #A8DAF2",
"* c #A1D7F1",
"= c #D0EBF8",
"- c #FAFDFE",
"; c #2CA5E0",
": c None",
/* pixels */
":::::@@@@@@:::::",
":::@@@@@@@@@@:::",
"::@@@@@@@@@@@@::",
":@@@@@@@@@@@@@@:",
":@@@@@++@@##@@@:",
"@@@@@@+#*&-*@@@@",
"@@@@#%&----%@@@@",
"@@@%=-----=#@@@@",
"@@@#=-----*+@@@@",
"@@@@@%=---$+@@@@",
"@@@@++$=-=@+@@@@",
":@@+@+@*-*++@@@:",
":@@@@@@#&$@@@@@:",
"::@@@@@@@@@@@@::",
":::@@@@@@@@@@:::",
":::::@@@@@@:::::"
};
