/* XPM */
static char *telega_logo[] = {
/* columns rows colors chars-per-pixel */
"16 16 168 2 ",
"   c #542775",
".  c #552B78",
"X  c #542C78",
"o  c #542E78",
"O  c #5C2B7F",
"+  c #5C2C7F",
"@  c #5C2E80",
"#  c #5E3787",
"$  c #5C3885",
"%  c #612B83",
"&  c #6E3193",
"*  c #703195",
"=  c #72389A",
"-  c #7936A1",
";  c #624090",
":  c #624190",
">  c #634391",
",  c #634292",
"<  c #644594",
"1  c #654696",
"2  c #6A4598",
"3  c #684798",
"4  c #6B469A",
"5  c #6B499B",
"6  c #684B9B",
"7  c #684C9B",
"8  c #6A4C9C",
"9  c #71449E",
"0  c #744DA6",
"q  c #7C42A9",
"w  c #794DAB",
"e  c #7D48AD",
"r  c #7D49AD",
"t  c #7257A7",
"y  c #715BA8",
"u  c #715CA9",
"i  c #735DAA",
"p  c #7B55B0",
"a  c #7F50B4",
"s  c #7F53B4",
"d  c #7C55B4",
"f  c #7F55B4",
"g  c #7F56B5",
"h  c #7A5BB1",
"j  c #7D58B5",
"k  c #7F5AB6",
"l  c #7E5CB6",
"z  c #7F5DB7",
"x  c #7F5EB7",
"c  c #7564AF",
"v  c #7666B0",
"b  c #7D62B6",
"n  c #7A66B4",
"m  c #7F62B9",
"M  c #7E66B9",
"N  c #7D6AB8",
"B  c #7B6DB8",
"V  c #7D6EBA",
"C  c #7F6CBC",
"Z  c #7C70B9",
"A  c #7D74BB",
"S  c #7E72BC",
"D  c #7F71BE",
"F  c #7F76BE",
"G  c #853EB1",
"H  c #8C3EB8",
"J  c #8446B3",
"K  c #8743B5",
"L  c #8840B5",
"P  c #854AB7",
"I  c #854DB7",
"U  c #844FB7",
"Y  c #8F41BC",
"T  c #8E45BD",
"R  c #8C47BC",
"E  c #8D47BC",
"W  c #874DB9",
"Q  c #884BB9",
"!  c #8A49BA",
"~  c #894ABA",
"^  c #8C48BC",
"/  c #9044BE",
"(  c #8151B5",
")  c #8350B6",
"_  c #8251B6",
"`  c #8352B6",
"'  c #825BB6",
"]  c #8D52BC",
"[  c #915FBE",
"{  c #8060B8",
"}  c #8261B8",
"|  c #8164BA",
" . c #8067BB",
".. c #8863BA",
"X. c #806BBC",
"o. c #816BBD",
"O. c #826DBD",
"+. c #806EBD",
"@. c #816FBD",
"#. c #8969BC",
"$. c #8070BE",
"%. c #8170BE",
"&. c #8172BF",
"*. c #8174BF",
"=. c #8078BF",
"-. c #8175C0",
";. c #8274C0",
":. c #8275C0",
">. c #8076C0",
",. c #8277C1",
"<. c #8F74C1",
"1. c #8278C1",
"2. c #807AC0",
"3. c #807BC0",
"4. c #8279C2",
"5. c #827AC2",
"6. c #827BC2",
"7. c #827BC3",
"8. c #827CC3",
"9. c #827DC3",
"0. c #837DC3",
"q. c #837EC4",
"w. c #827FC4",
"e. c #8E7BC3",
"r. c #8B7DC4",
"t. c #8F7EC4",
"y. c #927AC4",
"u. c #977DC5",
"i. c #947FC6",
"p. c #9C7BC5",
"a. c #A47DCA",
"s. c #8380C5",
"d. c #8381C5",
"f. c #8482C6",
"g. c #8F86C8",
"h. c #9A8ECC",
"j. c #A78ECD",
"k. c #A79AD1",
"l. c #A69DD2",
"z. c #AD9FD4",
"x. c #BBAAD9",
"c. c #BCADDA",
"v. c #C1B3DD",
"b. c #C3B3DD",
"n. c #C1B4DD",
"m. c #C5BEE2",
"M. c #CDBBE1",
"N. c #CCC4E4",
"B. c #D2C5E5",
"V. c #D5C6E6",
"C. c #D4CCE8",
"Z. c #DFDAEE",
"A. c #E1D9EE",
"S. c #E2DBEF",
"D. c #E7E4F3",
"F. c #EBE6F4",
"G. c #EDEAF5",
"H. c #EFEBF6",
"J. c #EFECF6",
"K. c #F5F1F9",
"L. c #F6F4FA",
"P. c #F9F8FC",
"I. c #FCFBFD",
"U. c #FDFDFE",
"Y. c #FEFEFF",
"T. c #FFFEFF",
"R. c white",
"E. c None",
/* pixels */
"E.E.E.E.E.E.E.1 1 E.E.E.E.E.E.E.",
"E.E.E.E.7 v A =.F B i > E.E.E.E.",
"E.E.E.u 7.d.q.8.7.>.;.N 8 E.E.E.",
"E.E.y w.d.q.8.7.*.&.@.@. .3 E.E.",
"E.6 7.s.8.7.>.&.&. .o.g.y.h # E.",
"E.c s.8.7.*.S &.y.z.C.S.u.z 3 E.",
"E.Z 7.>.&.r.k.N.G.T.T.x.z z 0 E.",
", S g.l.m.D.I.T.T.T.A.#.j ( w o ",
", V h.A.T.T.J.J.T.P.j.p ( ` r X ",
"E.n @.e.c.c.b.L.T.B.' ( ` I q E.",
"E.t o. .M <.F.T.K.u.( I ~ ^ = E.",
"E.; b | | | b.T.M.` I ~ R L + E.",
"E.E.6 ' ' j #.B.a.P ~ R Y & E.E.",
"E.E.E.3 p ( ` [ ] R / H * E.E.E.",
"E.E.E.E.# 9 e J L G - % E.E.E.E.",
"E.E.E.E.E.E.. @ @   E.E.E.E.E.E."
};
